HIERARCHY
ROOT Hips
{
  OFFSET 0.000000 0.000000 0.000000
  CHANNELS 6 Xposition Yposition Zposition Zrotation Yrotation Xrotation
  JOINT Spine
  {
    OFFSET -0.020961 2.022879 -0.147518
    CHANNELS 3 Zrotation Yrotation Xrotation
    JOINT Spine1
    {
      OFFSET 0.034773 2.031355 -0.023581
      CHANNELS 3 Zrotation Yrotation Xrotation
      JOINT Spine2
      {
        OFFSET 0.044228 2.037827 0.045739
        CHANNELS 3 Zrotation Yrotation Xrotation
        JOINT Neck
        {
          OFFSET 0.001735 1.743591 0.193358
          CHANNELS 3 Zrotation Yrotation Xrotation
          JOINT Head
          {
            OFFSET -0.008631 1.772389 -0.081202
            CHANNELS 3 Zrotation Yrotation Xrotation
            End Site
            {
              OFFSET 0 0 0
            }
          }
        }
        JOINT LeftShoulder
        {
          OFFSET 3.686852 1.326873 -0.673670
          CHANNELS 3 Zrotation Yrotation Xrotation
          JOINT LeftArm
          {
            OFFSET 4.764680 -0.000000 -0.000000
            CHANNELS 3 Zrotation Yrotation Xrotation
            JOINT LeftForeArm
            {
              OFFSET 3.527120 -0.000000 -0.000000
              CHANNELS 3 Zrotation Yrotation Xrotation
              JOINT LeftHand
              {
                OFFSET 0.859564 -0.000000 -0.000000
                CHANNELS 3 Zrotation Yrotation Xrotation
                JOINT LeftHandIndex1
                {
                  OFFSET 0.693002 -0.000000 -0.000000
                  CHANNELS 3 Zrotation Yrotation Xrotation
                  End Site
                  {
                    OFFSET 0 0 0
                  }
                }
              }
            }
          }
        }
        JOINT RightShoulder
        {
          OFFSET -3.313040 1.282684 -0.973569
          CHANNELS 3 Zrotation Yrotation Xrotation
          JOINT RightArm
          {
            OFFSET -4.905770 -0.000000 -0.000000
            CHANNELS 3 Zrotation Yrotation Xrotation
            JOINT RightForeArm
            {
              OFFSET -3.426920 -0.000000 0.000000
              CHANNELS 3 Zrotation Yrotation Xrotation
              JOINT RightHand
              {
                OFFSET -0.740957 -0.000000 -0.000000
                CHANNELS 3 Zrotation Yrotation Xrotation
                JOINT RightHandIndex1
                {
                  OFFSET -0.597378 -0.000000 -0.000000
                  CHANNELS 3 Zrotation Yrotation Xrotation
                  End Site
                  {
                    OFFSET 0 0 0
                  }
                }
              }
            }
          }
        }
      }
    }
  }
  JOINT LeftUpLeg
  {
    OFFSET 2.525544 -6.938881 0.000000
    CHANNELS 3 Zrotation Yrotation Xrotation
    JOINT LeftLeg
    {
      OFFSET 2.566542 -7.051522 0.000000
      CHANNELS 3 Zrotation Yrotation Xrotation
      JOINT LeftFoot
      {
        OFFSET 0.216985 -0.596163 1.853691
        CHANNELS 3 Zrotation Yrotation Xrotation
        JOINT LeftToeBase
        {
          OFFSET 0.000000 -0.000000 0.978318
          CHANNELS 3 Zrotation Yrotation Xrotation
          End Site
          {
            OFFSET 0 0 0
          }
        }
      }
    }
  }
  JOINT RightUpLeg
  {
    OFFSET -2.534248 -6.962796 0.000000
    CHANNELS 3 Zrotation Yrotation Xrotation
    JOINT RightLeg
    {
      OFFSET -2.584125 -7.099832 0.000000
      CHANNELS 3 Zrotation Yrotation Xrotation
      JOINT RightFoot
      {
        OFFSET -0.264373 -0.726359 1.922409
        CHANNELS 3 Zrotation Yrotation Xrotation
        JOINT RightToeBase
        {
          OFFSET -0.000000 -0.000000 1.026670
          CHANNELS 3 Zrotation Yrotation Xrotation
          End Site
          {
            OFFSET 0 0 0
          }
        }
      }
    }
  }
}
MOTION
Frames: 13
Frame Time: 0.00833333
-2.008730 16.793600 -15.419400 -1.693480 -7.889270 3.611730 -18.934100 6.413180 -16.163200 0.000000 0.000000 55.199300 10.212500 0.000000 -29.130300 0.000000 0.000000 -27.707800 22.156700 -4.752040 -14.415500 0.000000 0.000000 45.906600 -8.563480 0.000000 -34.208400 0.000000 0.000000 15.360900 -1.095240 -0.008530 10.865100 1.062280 -0.089336 0.930755 1.741450 -0.010664 -5.119140 2.350530 3.977690 -11.420900 -1.288110 2.459860 3.027900 -0.000000 0.000000 0.000000 84.975300 15.339700 -33.940700 0.000000 0.000000 48.109600 -10.236800 0.000000 -7.671850 0.000000 0.000000 7.125020 -0.000000 0.000000 0.000000 -82.632100 -14.536200 -31.152500 0.000000 0.000000 28.978700 -38.490000 0.000000 -9.445940 0.000000 0.000000 7.125020
-2.042310 16.781400 -15.337600 -2.057760 -8.065550 3.772800 -18.307300 6.846820 -18.228100 0.000000 0.000000 58.950900 9.243590 0.000000 -26.376700 0.000000 0.000000 -27.768200 22.541300 -5.267470 -14.085500 0.000000 0.000000 45.594200 -8.170300 0.000000 -34.201300 0.000000 0.000000 14.867400 -0.680646 0.028996 11.313800 1.159960 0.014302 1.010240 1.595830 0.032846 -5.290030 2.448970 4.131290 -11.477600 -1.350980 2.549360 2.888020 -0.000000 -0.000000 0.000000 85.460400 14.239800 -34.377700 0.000000 0.000000 48.889000 -10.426800 0.000000 -7.891810 0.000000 0.000000 7.125020 -0.000000 -0.000000 0.000000 -83.248000 -13.146800 -30.823600 0.000000 0.000000 29.586700 -38.347600 0.000000 -10.262300 0.000000 0.000000 7.125020
-2.073210 16.768500 -15.247200 -2.316750 -8.365710 3.881760 -17.829200 7.513050 -20.340800 0.000000 0.000000 62.698600 8.053180 0.000000 -23.243800 0.000000 0.000000 -27.209400 22.770200 -5.764410 -13.681000 0.000000 0.000000 45.276700 -7.712560 0.000000 -34.088600 0.000000 0.000000 14.712400 -0.306275 0.160692 11.809700 1.210850 0.239131 1.094050 1.403200 0.135842 -5.484520 2.499500 4.171020 -11.574200 -1.441520 2.565000 2.781680 0.000000 -0.000000 0.000000 86.062300 12.832700 -34.866800 0.000000 0.000000 49.741800 -10.461300 0.000000 -8.220270 0.000000 0.000000 7.125020 0.000000 -0.000000 0.000000 -83.751200 -11.865100 -30.616600 0.000000 0.000000 30.469200 -39.338300 0.000000 -9.997690 0.000000 0.000000 7.125020
-2.101440 16.759900 -15.144800 -2.747530 -8.798100 3.931450 -17.181400 8.507930 -22.328100 0.000000 0.000000 66.289700 6.960080 0.000000 -20.779500 0.000000 0.000000 -26.139500 23.137000 -6.201340 -13.107700 0.000000 0.000000 44.897500 -7.396220 0.000000 -34.169800 0.000000 0.000000 13.552800 0.267466 0.353264 12.305100 1.310230 0.576850 1.271920 1.126810 0.288760 -5.577580 2.445970 4.203860 -11.751000 -1.509550 2.580030 2.666190 0.000000 0.000000 0.000000 86.709700 11.367000 -35.372100 0.000000 0.000000 50.716500 -10.412700 0.000000 -8.447230 0.000000 0.000000 7.125020 0.000000 0.000000 0.000000 -84.279200 -10.488400 -30.379600 0.000000 0.000000 31.464300 -40.444800 0.000000 -9.457260 0.000000 0.000000 7.125020
-2.127230 16.748600 -15.032800 -3.481440 -9.257340 3.988610 -16.250400 9.704570 -24.192900 0.000000 0.000000 69.578800 6.193930 0.000000 -20.015800 0.000000 0.000000 -25.865900 23.831200 -6.444240 -12.393600 0.000000 0.000000 44.426900 -7.470230 0.000000 -34.698200 0.000000 0.000000 10.293600 1.138470 0.535832 12.794000 1.492080 0.951941 1.478670 0.759343 0.453960 -5.627070 2.355960 4.283010 -11.808300 -1.558700 2.629930 2.483890 -0.000000 -0.000000 0.000000 87.285200 9.951900 -35.994900 0.000000 0.000000 51.771800 -10.327500 0.000000 -8.570470 0.000000 0.000000 7.125020 -0.000000 -0.000000 0.000000 -84.970800 -8.793990 -30.138700 0.000000 0.000000 32.195800 -40.541900 0.000000 -10.443500 0.000000 0.000000 7.125020
-2.151120 16.731900 -14.911300 -4.353930 -9.661370 4.113740 -15.248300 10.972600 -26.019200 0.000000 0.000000 72.446800 5.356880 0.000000 -20.476600 0.000000 0.000000 -25.726200 24.701600 -6.468650 -11.645900 0.000000 0.000000 43.901000 -6.019980 0.000000 -34.451600 0.000000 0.000000 13.179600 2.152520 0.702602 13.247400 1.714830 1.336280 1.653580 0.349853 0.621166 -5.678340 2.273050 4.333190 -11.841800 -1.620540 2.661170 2.321800 0.000000 -0.000000 0.000000 87.809000 8.580920 -36.706600 0.000000 0.000000 52.759700 -10.460400 0.000000 -8.646000 0.000000 0.000000 7.125020 0.000000 -0.000000 0.000000 -85.749100 -6.712760 -30.011300 0.000000 0.000000 33.076600 -40.731300 0.000000 -11.033800 0.000000 0.000000 7.125020
-2.177120 16.716100 -14.775200 -4.982060 -10.044500 4.275890 -14.626300 12.312700 -27.822000 0.000000 0.000000 74.787900 4.456800 0.000000 -21.080400 0.000000 0.000000 -25.257800 25.307100 -6.378190 -10.908500 0.000000 0.000000 43.377700 -5.524830 0.000000 -35.589900 0.000000 0.000000 9.213010 2.890510 0.875714 13.591600 1.869760 1.688460 1.808150 0.029732 0.778772 -5.685900 2.271290 4.359360 -11.905600 -1.733160 2.670070 2.202140 0.000000 -0.000000 0.000000 88.238800 7.349710 -37.479400 0.000000 0.000000 53.665500 -10.840000 0.000000 -8.821060 0.000000 0.000000 7.125020 0.000000 -0.000000 0.000000 -86.596800 -4.497590 -29.849000 0.000000 0.000000 33.831900 -40.492700 0.000000 -11.507300 0.000000 0.000000 7.125020
-2.204870 16.703700 -14.626800 -5.093970 -10.308500 4.480260 -14.741900 13.538700 -29.706500 0.000000 0.000000 76.535700 3.695920 0.000000 -21.540800 0.000000 0.000000 -25.269700 25.368200 -6.296840 -10.280000 0.000000 0.000000 42.895400 -5.546380 0.000000 -37.251800 0.000000 0.000000 2.828400 3.149470 1.119510 13.767600 1.815670 2.048330 1.916390 -0.240607 0.949567 -5.650420 2.466280 4.320870 -12.009400 -1.885460 2.623090 2.132970 0.000000 -0.000000 0.000000 88.579000 5.996170 -38.278300 0.000000 0.000000 54.500600 -11.162500 0.000000 -9.227740 0.000000 0.000000 7.125020 0.000000 -0.000000 0.000000 -87.368400 -2.869550 -29.591400 0.000000 0.000000 34.470100 -40.256300 0.000000 -11.212000 0.000000 0.000000 7.125020
-2.234120 16.691600 -14.474300 -5.029150 -10.247800 4.724040 -15.179900 14.504500 -31.723600 0.000000 0.000000 77.742400 2.896740 0.000000 -21.791200 0.000000 0.000000 -25.550800 25.336200 -6.245960 -9.744290 0.000000 0.000000 42.438900 -5.854020 0.000000 -38.661500 0.000000 0.000000 -1.847290 3.252980 1.355620 13.940600 1.691280 2.374570 1.942980 -0.493226 1.105040 -5.699780 2.713840 4.235230 -12.049500 -2.013480 2.544220 2.057730 0.000000 -0.000000 0.000000 88.840800 4.598610 -39.201700 0.000000 0.000000 55.308200 -11.421600 0.000000 -9.650130 0.000000 0.000000 7.125020 0.000000 -0.000000 0.000000 -88.124600 -1.506020 -29.431900 0.000000 0.000000 35.128800 -40.416300 0.000000 -10.787900 0.000000 0.000000 7.125020
-2.265070 16.674800 -14.314600 -5.135040 -9.952370 4.961000 -15.536400 15.384100 -33.667000 0.000000 0.000000 78.443500 2.232420 0.000000 -21.929600 0.000000 0.000000 -26.133100 25.549600 -6.231150 -9.134940 0.000000 0.000000 41.964400 -6.601860 0.000000 -38.059700 0.000000 0.000000 1.056800 3.482250 1.462350 14.255000 1.702960 2.567500 1.897590 -0.655492 1.190070 -5.906250 2.815920 4.181490 -11.960400 -2.129400 2.498300 1.947800 0.000000 0.000000 0.000000 89.035500 3.642100 -40.397200 0.000000 0.000000 56.174000 -11.561600 0.000000 -9.997970 0.000000 0.000000 7.125020 0.000000 0.000000 0.000000 -89.064100 0.420175 -29.410800 0.000000 0.000000 35.672500 -40.470900 0.000000 -11.553400 0.000000 0.000000 7.125020
-2.293550 16.657500 -14.141800 -5.302850 -9.565940 5.206560 -15.933400 16.152700 -35.529200 0.000000 0.000000 78.655500 1.504460 0.000000 -22.053000 0.000000 0.000000 -25.956600 25.813100 -6.298860 -8.425170 0.000000 0.000000 41.441900 -7.354200 0.000000 -37.366100 0.000000 0.000000 4.085440 3.802040 1.528540 14.605100 1.743600 2.727720 1.830010 -0.834993 1.255380 -6.153180 2.958100 4.135510 -11.982400 -2.283680 2.451610 1.895310 -0.000000 -0.000000 0.000000 89.165700 2.907900 -41.680300 0.000000 0.000000 56.998400 -11.626500 0.000000 -10.420000 0.000000 0.000000 7.125020 -0.000000 -0.000000 0.000000 -89.947500 2.166620 -29.377600 0.000000 0.000000 36.345700 -40.597400 0.000000 -11.770200 0.000000 0.000000 7.125020
-2.320270 16.647100 -13.957000 -5.346390 -9.100920 5.496340 -16.548200 16.703300 -37.482700 0.000000 0.000000 78.423600 0.457987 0.000000 -22.254400 0.000000 0.000000 -25.478700 25.954800 -6.385060 -7.712320 0.000000 0.000000 40.878200 -8.036990 0.000000 -36.660800 0.000000 0.000000 7.710720 3.999710 1.626450 14.891300 1.745070 2.907270 1.756710 -0.990444 1.332300 -6.372770 2.966260 4.070000 -12.155900 -2.351640 2.400370 1.885720 -0.000000 -0.000000 0.000000 89.232000 2.352640 -42.919700 0.000000 0.000000 57.689100 -11.883000 0.000000 -10.948800 0.000000 0.000000 7.125020 -0.000000 -0.000000 0.000000 -90.661100 3.575400 -29.348100 0.000000 0.000000 37.214600 -40.642900 0.000000 -11.225800 0.000000 0.000000 7.125020
-2.348710 16.633400 -13.765400 -5.306960 -8.517230 5.808020 -17.352500 17.108500 -39.470900 0.000000 0.000000 77.787800 -0.547020 0.000000 -22.424000 0.000000 0.000000 -25.886300 26.049000 -6.497850 -7.040720 0.000000 0.000000 40.334000 -8.879590 0.000000 -35.633800 0.000000 0.000000 12.362900 4.061580 1.714080 15.163400 1.770370 3.054770 1.654540 -1.039620 1.395820 -6.624470 2.732660 3.946590 -12.312400 -2.318250 2.331010 1.870220 0.000000 -0.000000 0.000000 89.261100 2.013700 -44.303300 0.000000 0.000000 58.406400 -12.354500 0.000000 -11.613700 0.000000 0.000000 7.125020 0.000000 -0.000000 0.000000 -91.420100 5.295120 -29.420300 0.000000 0.000000 38.016300 -40.172500 0.000000 -11.246600 0.000000 0.000000 7.125020
